<?xml version="1.0" encoding="utf-8"?>
<!-- Generator: Adobe Illustrator 26.5.0, SVG Export Plug-In . SVG Version: 6.00 Build 0)  -->
<svg version="1.1" id="Layer_1" xmlns="http://www.w3.org/2000/svg" xmlns:xlink="http://www.w3.org/1999/xlink" x="0px" y="0px"
	 viewBox="0 0 150 150" style="enable-background:new 0 0 150 150;" xml:space="preserve">
<style type="text/css">
	.st0{fill-rule:evenodd;clip-rule:evenodd;fill:#FFB751;}
	.st1{fill:#FFB751;}
</style>
<g>
	<path class="st0" d="M79.8,11.5l-0.1,14.8v5.1v0.7v5.1v5v5.6v5v2.5c0,1.7-1.2,3.1-2.7,3.4l0,0l0,0c-0.2,0-0.5,0.1-0.7,0.1
		s-0.5,0-0.7-0.1l0,0c-1.5-0.3-2.7-1.7-2.8-3.4l0,0v-2.4v-5v-5.6v-5v-5.1v-5.8l0.1-14.8c0-1.9,1.6-3.5,3.5-3.4
		C78.3,8.1,79.9,9.6,79.8,11.5z"/>
	<path class="st1" d="M116.4,114l-3.6-3.6c12.7-15,15.3-36.8,5.1-54.8C113,47,105.8,40.5,97.4,36.4c-0.2-0.1-0.4-0.2-0.7-0.3
		c-1.2-0.6-2.4-1.1-3.6-1.5v6v5.5v2.4c0,1.3-0.7,2.4-1.7,3c-0.5,0.3-1.1,0.5-1.7,0.5c-1.6,0-3-1.1-3.3-2.6c-0.1-0.3-0.1-0.6-0.1-0.9
		l0.1-25.2c0-1.9,1.6-3.5,3.5-3.5s3.4,1.5,3.4,3.5v3.1v2.8c1.4,0.5,2.8,1,4.2,1.6c10.1,4.4,18.9,12,24.8,22.3
		C133.7,73,130.7,97.4,116.4,114z"/>
	<path class="st1" d="M65.8,49c0,0.1,0,0.3,0,0.4c-0.2,1.7-1.6,3.1-3.4,3.1c-0.8,0-1.5-0.2-2-0.6c-0.9-0.6-1.4-1.6-1.4-2.8
		l-0.1-13.9c-1.3,0.5-2.5,1-3.8,1.6c-0.2,0.1-0.4,0.2-0.5,0.2C46.1,41.1,39,47.6,34.1,56.2C24,74,26.5,95.6,38.8,110.5l-3.6,3.6
		c-13.9-16.5-16.8-40.6-5.5-60.5c6-10.5,15-18.2,25.3-22.5c1.2-0.5,2.5-1,3.8-1.4v-5.9c0-1.9,1.5-3.5,3.5-3.5
		c1.9-0.1,3.5,1.5,3.5,3.5V49z"/>
</g>
<g>
	<path class="st1" d="M96,102.4c-4-4.5-9.4-6.8-16.4-6.8H60.1l-8.3,47.2h19.6c7,0,13.2-2.3,18.8-6.8c5.5-4.5,8.8-10.1,10-16.8
		C101.3,112.5,100,107,96,102.4z M89,119.3c-0.2,1-0.4,1.9-0.8,2.9c-1.1,3.2-3.1,5.8-6,7.8c-2.8,2-5.9,3-9.3,3h-8.6l4.8-27.5h8.7
		c3.9,0,6.9,1.4,9,4C89,112.1,89.8,115.4,89,119.3z"/>
</g>
<path class="st1" d="M97.5,42.6v5.9c10.3,6.9,17.2,18.6,17.2,32c0,8.9-3,17.1-8.1,23.6l3.5,3.5c6-7.4,9.6-16.9,9.6-27.2
	C119.6,64.2,110.7,50.1,97.5,42.6z M32.8,80.5c0,10.1,3.5,19.4,9.3,26.8l3.6-3.6c-4.9-6.4-7.8-14.5-7.8-23.2
	c0-13.1,6.6-24.7,16.6-31.6V43C41.5,50.5,32.8,64.5,32.8,80.5z"/>
<path class="st1" d="M97.5,55.5v7.1c4.1,4.8,6.6,11.1,6.6,17.9c0,6-1.9,11.5-5.1,16l3.6,3.6c4.1-5.5,6.5-12.3,6.5-19.6
	C109,70.5,104.5,61.5,97.5,55.5z M55,55.5c-7.1,6-11.6,15-11.6,25c0,7.2,2.3,13.8,6.2,19.2l3.6-3.6c-3-4.5-4.8-9.8-4.8-15.6
	c0-6.8,2.5-13.1,6.6-17.9V55.5z"/>
<path class="st1" d="M90.1,63.7c-1.8-1.5-3.8-2.7-6-3.5v5.5c5.3,2.8,9,8.4,9,14.8c0,2.9-0.8,5.7-2.1,8l3.6,3.6
	c2.2-3.4,3.4-7.4,3.4-11.7C98,73.7,94.9,67.7,90.1,63.7z M62.3,63.7c-4.8,4-7.9,10-7.9,16.8c0,4.1,1.2,8,3.1,11.3l3.7-3.7
	c-1.2-2.3-1.8-4.9-1.8-7.6c0-6.3,3.5-11.9,8.8-14.7v-5.5C66.1,61.1,64.1,62.2,62.3,63.7z"/>
</svg>
