<?xml version="1.0" encoding="utf-8"?>
<!-- Generator: Adobe Illustrator 26.5.0, SVG Export Plug-In . SVG Version: 6.00 Build 0)  -->
<svg version="1.1" id="Layer_1" xmlns="http://www.w3.org/2000/svg" xmlns:xlink="http://www.w3.org/1999/xlink" x="0px" y="0px"
	 viewBox="0 0 150 150" style="enable-background:new 0 0 150 150;" xml:space="preserve">
<style type="text/css">
	.st0{fill-rule:evenodd;clip-rule:evenodd;fill:#28DBD1;}
	.st1{fill:#28DBD1;}
</style>
<path class="st0" d="M53.5,91.9l-19.8,13.3l-4.2,2.9l-12.3,8.3c-1.6,1.1-3.8,0.7-4.8-0.9c-1.1-1.6-0.7-3.8,0.9-4.8l12.3-8.3l4.2-2.9
	l19.8-13.3c1.6-1.1,3.8-0.7,4.8,0.9C55.5,88.6,55.1,90.8,53.5,91.9z"/>
<path class="st1" d="M40.1,84.6l-13.2,8.9l-4.3,2.9l-3.4,2.3c-1.6,1.1-3.8,0.7-4.8-0.9c-1.1-1.6-0.7-3.7,0.9-4.8l4.9-3.3
	c-3.4-12.1-2.4-25.4,3.5-37.5C36,26.7,66.2,15.6,92,26.5c-1.9,1-3.7,2.1-5.4,3.4c-22.5-7.5-47.7,2.6-58.4,24.4
	c-5.1,10.4-6.1,21.7-3.5,32.3l11.5-7.8c1.6-1.1,3.7-0.7,4.8,0.9C42.1,81.4,41.7,83.5,40.1,84.6z"/>
<path class="st1" d="M120.9,94.7c-0.5,1.3-1.1,2.7-1.8,4c-12.9,26.3-44.7,37.2-71,24.4c-3.2-1.5-6.1-3.4-8.8-5.4l-5,3.4
	c-1.6,1.1-3.8,0.7-4.8-0.9c-1.1-1.6-0.7-3.8,0.9-4.8l3.4-2.3l4.3-2.9l13.1-8.8c1.6-1.1,3.8-0.7,4.8,0.9c1.1,1.6,0.7,3.8-0.9,4.8
	l-11.5,7.8c2,1.4,4.2,2.7,6.6,3.9c23.8,11.6,52.7,1.8,64.3-22.1c0.1-0.1,0.1-0.2,0.2-0.3C116.9,95.9,118.9,95.3,120.9,94.7z"/>
<g>
	<path class="st1" d="M90.2,83l8.3-47.2h19.5c7,0,12.5,2.3,16.4,6.8c4,4.6,5.3,10.1,4.2,16.8c-1.2,6.7-4.6,12.3-10,16.8
		c-5.6,4.6-11.8,6.8-18.8,6.8H90.2z M102.7,73.2h8.6c3.4,0,6.5-1,9.3-3c2.9-2,4.9-4.6,6-7.8c0.4-0.9,0.7-1.9,0.8-2.9
		c0.8-3.9,0-7.2-2.2-9.8c-2.1-2.6-5.1-4-9-4h-8.7L102.7,73.2z"/>
</g>
</svg>
